<?xml version="1.0" encoding="utf-8"?>
<!-- Generator: Adobe Illustrator 18.0.0, SVG Export Plug-In . SVG Version: 6.00 Build 0)  -->
<!DOCTYPE svg PUBLIC "-//W3C//DTD SVG 1.1//EN" "http://www.w3.org/Graphics/SVG/1.1/DTD/svg11.dtd">
<svg version="1.1" id="Layer_2" xmlns="http://www.w3.org/2000/svg" xmlns:xlink="http://www.w3.org/1999/xlink" x="0px" y="0px"
	 viewBox="0 0 400 400" enable-background="new 0 0 400 400" xml:space="preserve">
<g>
	<text transform="matrix(1 0 0 1 48.1543 307.8467)" fill="#50ABF1" font-family="'Blanch-CondensedInline'" font-size="308.8009">SPJB</text>
	<g id="XMLID_1_">
		<g>
			<path fill="#FA6900" d="M75.7,162.1l-1-1.4C74.6,160.9,75,161.4,75.7,162.1z M17.8,245.5c-0.4,0.3-10.1,7.5-9.4,5.5
				c1.9-6.3,7.2-11.1,7.5-11.4c-0.4,0.3-9,6.5-7.6,3.8c8.3-16.7,28.1-66.8,48.4-69.2c0.7-0.1,3.3-2.5,4.2-3.7
				c1.3-1.7,0.5-8.7,0.5-8.7s-9.3-7.3-14.7-13.1c-2.1-2.3-0.6-9.4,0-12.5c0.5-2.5,3.1-7.5,5.3-8.7c2.1-1.1,7.2-0.6,9.3,0.4
				c3.6,1.8,10.1,7,12,10.4c0.3,0.5,0.5,1.9,0.8,2.4c6.7,11,24,24.8,35.5,37.3c3.1,3.4-4.6,0.3-17.6-5.8
				c-3.8-1.8-13.2-7.4-16.4-10.2l5.7,8c0,0,10.1,10.7,10.4,15.4c0.6,8.7-9.4,25-15.3,31.4c-5.2,5.5-23.6,18.9-23.6,18.9
				s-2.2,3.9-2.2,5.4c0,2.7,4.2,9.8,4.2,9.8s3.1-0.9,4.1-0.7c0.6,0.1,2.1,1.3,2.1,1.3l15.1,1.8l-9.3,3.6H56.5l-4.9-3.3
				c0,0-4.9-8.1-5.6-11.1c-0.4-1.7,0.1-6.8,0.1-6.8l-2.6,5.2c0,0-12.1,19.9-11.7,17.2c1.2-8.1,0.2-16.7,0.2-16.7S21,260.7,22,256.8
				c1.8-7.7,1.2-11.6,1.2-11.6s-10.8,11.9-9.7,9c1.1-2.9,2.2-5.1,3-6.6C17.2,246.3,17.7,245.6,17.8,245.5z"/>
			<path fill="#FA6900" d="M74.8,160.7l1,1.4C75,161.4,74.6,160.9,74.8,160.7z"/>
		</g>
		<g>
		</g>
	</g>
</g>
</svg>
